<svg width="1134" height="1188" id="Layer_1" data-name="Layer 1" xmlns="http://www.w3.org/2000/svg" viewBox="0 0 1134 1188">
	<polygon points="594 576 639 621 639 639 693 693 693 711 747 765 747 783 810 846 756 900 693 900 585 1008 477 1008 297 1188 252 1188 225 1161 180 1161 153 1134 108 1134 72 1098 27 1098 27 1071 18 1062 0 1062 0 990 45 945 45 864 72 837 72 774 108 738 108 594 126 576 126 531 153 504 153 486 144 477 153 468 153 396 162 387 162 315 153 306 153 243 198 198 261 198 315 252 333 252 405 324 522 324 630 216 657 216 729 144 756 144 828 72 855 72 927 0 954 27 954 72 990 108 990 144 1044 198 1017 225 1044 252 1089 207 1116 234 1098 252 1134 288 1134 306 1053 387 1017 387 963 441 918 441 846 513 801 513 738 576 594 576"/>
</svg>