<svg id="Layer_1" data-name="Layer 1" xmlns="http://www.w3.org/2000/svg" viewBox="0 0 1037.69 1126.28">
  <polyline class="cls-1" points="154.42 180 199.42 135 253.42 135 253.42 144 271.42 162 271.42 162"/>
  <polyline class="cls-1" points="145.42 414 154.42 405 154.42 333 163.42 324 163.42 252 154.42 243 154.42 117 181.42 90 181.42 0"/>
  <g>
    <polyline class="cls-1" points="163.42 315 181.42 297 217.42 297 226.42 306 271.42 306 280.42 297 289.42 297 298.42 288 325.42 288 343.42 306 343.42 333 352.42 342 352.42 360 370.42 378"/>
    <polyline class="cls-1" points="262.42 270 280.42 288 280.42 297"/>
    <line class="cls-1" x1="343.42" y1="306" x2="361.42" y2="306"/>
  </g>
  <g>
    <polyline class="cls-1" points="154.42 405 163.42 414 190.42 414 199.42 423 217.42 423"/>
    <polyline class="cls-1" points="235.42 387 217.42 405 208.42 405 199.42 414 190.42 414"/>
  </g>
  <polyline class="cls-1" points="154.42 387 181.42 387 181.42 378 190.42 369"/>
  <polyline class="cls-1" points="127.42 495 136.42 504 226.42 504 262.42 540 262.42 558"/>
  <polyline class="cls-1" points="226.42 504 280.42 504 289.42 513"/>
  <polyline class="cls-1" points="190.42 477 172.42 495 154.42 495 145.42 504"/>
  <polyline class="cls-1" points="46.42 882 1.42 927 1.42 999"/>
  <polyline class="cls-1" points="109.42 621 109.42 675 73.42 711 73.42 774 46.42 801"/>
  <polyline class="cls-1" points="226.42 693 217.42 684 208.42 684 199.42 675 181.42 675 163.42 657 127.42 657 109.42 639"/>
  <polyline class="cls-1" points="217.42 135 217.42 126 235.42 108 253.42 108 262.42 99"/>
  <polyline class="cls-1" points="127.42 468 145.42 468 154.42 459 163.42 459"/>
  <g>
    <line class="cls-2" x1="199.42" y1="477" x2="199.43" y2="477"/>
    <polyline class="cls-3" points="204.99 477 226.42 477 244.42 459 262.42 459 280.42 441 304.62 441"/>
    <line class="cls-2" x1="307.4" y1="441" x2="307.42" y2="441"/>
  </g>
  <polyline class="cls-4" points="451.42 261 424.42 288 424.42 306 415.42 315 397.42 315 388.42 306 361.42 306"/>
  <line class="cls-4" x1="316.42" y1="450" x2="343.42" y2="477"/>
  <polyline class="cls-4" points="226.42 693 244.42 711 262.42 711 280.42 729"/>
  <polyline class="cls-4" points="541.42 423 541.42 405 550.42 396 550.42 387 559.42 378 577.42 378"/>
  <polyline class="cls-4" points="415.42 468 442.42 468 487.42 423 523.42 423 532.42 432"/>
  <polyline class="cls-4" points="460.42 342 460.42 297 478.42 279 478.42 270 487.42 261"/>
  <polyline class="cls-4" points="523.42 261 514.42 270 514.42 324 532.42 342 532.42 360 523.42 369 523.42 396"/>
  <polyline class="cls-4" points="505.42 423 496.42 432 496.42 450 478.42 468 469.42 468 451.42 486 415.42 486"/>
  <polyline class="cls-4" points="559.42 333 577.42 351 595.42 351 613.42 369"/>
  <polyline class="cls-4" points="613.42 171 613.42 243 640.42 270 640.42 333"/>
  <polyline class="cls-4" points="622.42 252 631.42 243 667.42 243 694.42 216 703.42 216 721.42 198 721.42 189"/>
  <polyline class="cls-4" points="802.42 270 802.42 279 775.42 306 775.42 324 757.42 342"/>
  <polyline class="cls-4" points="766.42 234 766.42 243 730.42 279 730.42 297 712.42 315"/>
  <polyline class="cls-4" points="811.42 261 829.42 261 838.42 270 856.42 270 874.42 288"/>
  <polyline class="cls-4" points="775.42 225 802.42 225 811.42 234 847.42 234 865.42 252"/>
  <polyline class="cls-4" points="730.42 180 739.42 171 748.42 180 784.42 180 793.42 189"/>
  <line class="cls-4" x1="874.42" y1="27" x2="856.42" y2="27"/>
  <polyline class="cls-4" points="982.42 36 946.42 36 937.42 45"/>
  <polyline class="cls-4" points="1036.42 126 973.42 126 955.42 108 901.42 108"/>
  <polyline class="cls-4" points="1027.42 171 973.42 171 955.42 189"/>
  <polyline class="cls-4" points="910.42 171 928.42 171 946.42 189 973.42 189 982.42 198 982.42 234 1000.42 252"/>
  <polyline class="cls-4" points="973.42 369 973.42 351 964.42 342 928.42 342 919.42 351 919.42 369"/>
  <polyline class="cls-4" points="838.42 288 838.42 315 829.42 324 829.42 342"/>
  <polyline class="cls-4" points="820.42 360 811.42 369 784.42 369 757.42 396 757.42 423 748.42 432 721.42 432 703.42 450"/>
  <polyline class="cls-4" points="550.42 423 613.42 423 622.42 414 622.42 405 631.42 396 667.42 396 694.42 369 730.42 369"/>
  <polyline class="cls-4" points="631.42 396 640.42 405 640.42 414 676.42 450 685.42 450"/>
  <polyline class="cls-4" points="829.42 396 838.42 405 838.42 414 856.42 432"/>
  <line class="cls-4" x1="757.42" y1="396" x2="811.42" y2="396"/>
  <polyline class="cls-4" points="181.42 855 190.42 855 217.42 855 226.42 846 262.42 846 280.42 828 316.42 828 325.42 837"/>
  <polyline class="cls-4" points="262.42 846 343.42 846 352.42 855"/>
  <polyline class="cls-4" points="361.42 846 352.42 855 352.42 864 343.42 873 298.42 873 280.42 891 280.42 909 271.42 918 217.42 918 199.42 936"/>
  <polyline class="cls-4" points="379.42 864 379.42 900 343.42 936 343.42 945 325.42 963 262.42 963 253.42 972"/>
  <polyline class="cls-4" points="289.42 1125 289.42 1116 280.42 1107 271.42 1107 262.42 1098 262.42 1089 235.42 1062 235.42 1044 226.42 1035 208.42 1035 190.42 1017 190.42 999 181.42 990"/>
  <polyline class="cls-4" points="316.42 1080 316.42 1071 298.42 1053 298.42 1026 280.42 1008"/>
  <polyline class="cls-4" points="379.42 990 370.42 999 334.42 999 325.42 1008 325.42 1035"/>
  <polyline class="cls-4" points="424.42 891 442.42 909 442.42 927 460.42 945 460.42 963"/>
  <polyline class="cls-4" points="415.42 954 415.42 909 406.42 900"/>
  <polyline class="cls-4" points="442.42 882 469.42 882 487.42 900 487.42 918 505.42 936 505.42 945"/>
  <polyline class="cls-4" points="442.42 855 451.42 864 505.42 864 523.42 846"/>
  <polyline class="cls-4" points="550.42 837 559.42 846 559.42 864 568.42 873 586.42 873 613.42 900 613.42 918"/>
  <polyline class="cls-4" points="469.42 828 460.42 828 442.42 846"/>
  <polyline class="cls-4" points="658.42 594 640.42 612 640.42 621 622.42 639 577.42 639 559.42 657 532.42 657 514.42 675 514.42 738 505.42 747 505.42 792 487.42 810"/>
  <polyline class="cls-4" points="685.42 630 667.42 648 649.42 648 631.42 666 631.42 684 613.42 702 595.42 702 586.42 711 586.42 729 577.42 738"/>
  <polyline class="cls-4" points="694.42 729 667.42 756 658.42 756 658.42 765 649.42 774 631.42 756 622.42 765 622.42 801 613.42 810"/>
  <polyline class="cls-4" points="703.42 657 685.42 675 676.42 675 649.42 702 649.42 711 640.42 720 622.42 720"/>
  <polyline class="cls-4" points="721.42 675 721.42 693 712.42 702 694.42 702 667.42 729 640.42 729 631.42 720 613.42 720 604.42 729 604.42 747 586.42 765 586.42 783 577.42 792"/>
  <polyline class="cls-4" points="721.42 720 721.42 738 712.42 747 703.42 747 685.42 765 685.42 783 676.42 792 676.42 801 667.42 810 658.42 810 649.42 819 640.42 819 631.42 828 613.42 828"/>
  <polyline class="cls-4" points="766.42 738 766.42 756 757.42 765 757.42 783 739.42 801 721.42 801 712.42 810 703.42 810 694.42 819 685.42 819 667.42 837 649.42 837"/>
  <polyline class="cls-1" points="154.42 189 181.42 189 190.42 198"/>
  <polyline class="cls-1" points="154.42 234 190.42 234 199.42 243"/>
  <polyline class="cls-1" points="154.42 351 181.42 351 190.42 342"/>
  <polygon class="cls-5" points="235.42 306 244.42 306 235.42 297 235.42 306"/>
  <polygon class="cls-5" points="181.42 675 190.42 675 181.42 666 181.42 675"/>
</svg>
