<?xml version="1.0" encoding="UTF-8"?>
<svg width="55px" height="44px" viewBox="0 0 55 44" version="1.1" xmlns="http://www.w3.org/2000/svg" xmlns:xlink="http://www.w3.org/1999/xlink">
    <!-- Generator: Sketch 51.3 (57544) - http://www.bohemiancoding.com/sketch -->
    <title>ground-water</title>
    <desc>Created with Sketch.</desc>
    <defs>
        <rect id="path-1" x="0" y="0" width="55" height="44"></rect>
    </defs>
    <g id="Page-3" stroke="none" stroke-width="1" fill="none" fill-rule="evenodd">
        <g id="Artboard" transform="translate(-349.000000, -1317.000000)">
            <g id="ground-water" transform="translate(349.000000, 1317.000000)">
                <g id="Path-3-Copy-+-Path-3-Copy-Mask">
                    <mask id="mask-2" fill="white">
                        <use xlink:href="#path-1"></use>
                    </mask>
                    <use id="Mask" fill="#FFFFFF" xlink:href="#path-1"></use>
                    <path d="M0.208569209,24.25 C7.00739581,24.25 7.0893723,19 13.8589189,19 C20.6284654,19 19.5201293,24.25 26.2925963,24.25 C33.0650633,24.25 33.1455909,19 39.9429459,19 C46.7403009,19 50.3006292,23.7729099 51,24 C51.6993708,24.2270901 78.0405148,23.8860294 55.3414753,24" id="Path-3-Copy" stroke="#000000" stroke-width="4" mask="url(#mask-2)"></path>
                    <path d="M0.208569209,32.25 C7.00739581,32.25 7.0893723,27 13.8589189,27 C20.6284654,27 19.5201293,32.25 26.2925963,32.25 C33.0650633,32.25 33.1455909,27 39.9429459,27 C46.7403009,27 50.3006292,31.7729099 51,32 C51.6993708,32.2270901 78.0405148,31.8860294 55.3414753,32" id="Path-3-Copy" stroke="#000000" stroke-width="4" mask="url(#mask-2)"></path>
                </g>
            </g>
        </g>
    </g>
</svg>