<?xml version="1.0" encoding="UTF-8"?>
<svg width="771px" height="1178px" viewBox="0 0 771 1178" version="1.1" xmlns="http://www.w3.org/2000/svg" xmlns:xlink="http://www.w3.org/1999/xlink">
    <!-- Generator: Sketch 51.3 (57544) - http://www.bohemiancoding.com/sketch -->
    <title>ground-water</title>
    <desc>Created with Sketch.</desc>
    <defs></defs>
    <g id="Page-3" stroke="none" stroke-width="1" fill="none" fill-rule="evenodd">
        <g id="Map---Utilities-Copy" transform="translate(-149.000000, -152.000000)">
            <g id="ground-water" transform="translate(151.000000, 152.000000)">
                <g id="g1" transform="translate(126.000000, 99.000000)">
                    <rect id="Rectangle-3" fill="#FFFFFF" x="4" y="0" width="33" height="27"></rect>
                    <path d="M0,11.5 C0.974431439,13.1666667 2.8362733,14 5.58552559,14 C9.70940401,14 9.75912746,11 13.8652459,11 C17.9713643,11 17.9056522,14 22.013542,14 C26.1214318,14 26.1702765,11 30.2932623,11 C33.0419195,11 35.2774987,12.3333333 37,15" id="Path-3-Copy" stroke="#000000" stroke-width="3"></path>
                    <path d="M0,18.5 C0.974431439,20.1666667 2.8362733,21 5.58552559,21 C9.70940401,21 9.75912746,18 13.8652459,18 C17.9713643,18 17.9056522,21 22.013542,21 C26.1214318,21 26.1702765,18 30.2932623,18 C33.0419195,18 35.2774987,19.3333333 37,22" id="Path-3-Copy" stroke="#000000" stroke-width="3"></path>
                </g>
                <g id="g2" transform="translate(126.000000, 322.000000)">
                    <rect id="Rectangle-3" fill="#FFFFFF" x="4" y="0" width="33" height="27"></rect>
                    <path d="M0,11.5 C0.974431439,13.1666667 2.8362733,14 5.58552559,14 C9.70940401,14 9.75912746,11 13.8652459,11 C17.9713643,11 17.9056522,14 22.013542,14 C26.1214318,14 26.1702765,11 30.2932623,11 C33.0419195,11 35.2774987,12.3333333 37,15" id="Path-3-Copy" stroke="#000000" stroke-width="3"></path>
                    <path d="M0,18.5 C0.974431439,20.1666667 2.8362733,21 5.58552559,21 C9.70940401,21 9.75912746,18 13.8652459,18 C17.9713643,18 17.9056522,21 22.013542,21 C26.1214318,21 26.1702765,18 30.2932623,18 C33.0419195,18 35.2774987,19.3333333 37,22" id="Path-3-Copy" stroke="#000000" stroke-width="3"></path>
                </g>
                <g id="g3" transform="translate(43.000000, 815.000000)">
                    <rect id="Rectangle-3" fill="#FFFFFF" x="4" y="0" width="33" height="27"></rect>
                    <path d="M0,11.5 C0.974431439,13.1666667 2.8362733,14 5.58552559,14 C9.70940401,14 9.75912746,11 13.8652459,11 C17.9713643,11 17.9056522,14 22.013542,14 C26.1214318,14 26.1702765,11 30.2932623,11 C33.0419195,11 35.2774987,12.3333333 37,15" id="Path-3-Copy" stroke="#000000" stroke-width="3"></path>
                    <path d="M0,18.5 C0.974431439,20.1666667 2.8362733,21 5.58552559,21 C9.70940401,21 9.75912746,18 13.8652459,18 C17.9713643,18 17.9056522,21 22.013542,21 C26.1214318,21 26.1702765,18 30.2932623,18 C33.0419195,18 35.2774987,19.3333333 37,22" id="Path-3-Copy" stroke="#000000" stroke-width="3"></path>
                </g>
                <g id="g4" transform="translate(233.000000, 647.000000)">
                    <rect id="Rectangle-3" fill="#FFFFFF" x="4" y="0" width="33" height="27"></rect>
                    <path d="M0,11.5 C0.974431439,13.1666667 2.8362733,14 5.58552559,14 C9.70940401,14 9.75912746,11 13.8652459,11 C17.9713643,11 17.9056522,14 22.013542,14 C26.1214318,14 26.1702765,11 30.2932623,11 C33.0419195,11 35.2774987,12.3333333 37,15" id="Path-3-Copy" stroke="#000000" stroke-width="3"></path>
                    <path d="M0,18.5 C0.974431439,20.1666667 2.8362733,21 5.58552559,21 C9.70940401,21 9.75912746,18 13.8652459,18 C17.9713643,18 17.9056522,21 22.013542,21 C26.1214318,21 26.1702765,18 30.2932623,18 C33.0419195,18 35.2774987,19.3333333 37,22" id="Path-3-Copy" stroke="#000000" stroke-width="3"></path>
                </g>
                <g id="g5" transform="translate(415.000000, 308.000000)">
                    <rect id="Rectangle-3" fill="#FFFFFF" x="4" y="0" width="33" height="27"></rect>
                    <path d="M0,11.5 C0.974431439,13.1666667 2.8362733,14 5.58552559,14 C9.70940401,14 9.75912746,11 13.8652459,11 C17.9713643,11 17.9056522,14 22.013542,14 C26.1214318,14 26.1702765,11 30.2932623,11 C33.0419195,11 35.2774987,12.3333333 37,15" id="Path-3-Copy" stroke="#000000" stroke-width="3"></path>
                    <path d="M0,18.5 C0.974431439,20.1666667 2.8362733,21 5.58552559,21 C9.70940401,21 9.75912746,18 13.8652459,18 C17.9713643,18 17.9056522,21 22.013542,21 C26.1214318,21 26.1702765,18 30.2932623,18 C33.0419195,18 35.2774987,19.3333333 37,22" id="Path-3-Copy" stroke="#000000" stroke-width="3"></path>
                </g>
                <g id="g6" transform="translate(387.000000, 111.000000)">
                    <rect id="Rectangle-3" fill="#FFFFFF" x="4" y="0" width="33" height="27"></rect>
                    <path d="M0,11.5 C0.974431439,13.1666667 2.8362733,14 5.58552559,14 C9.70940401,14 9.75912746,11 13.8652459,11 C17.9713643,11 17.9056522,14 22.013542,14 C26.1214318,14 26.1702765,11 30.2932623,11 C33.0419195,11 35.2774987,12.3333333 37,15" id="Path-3-Copy" stroke="#000000" stroke-width="3"></path>
                    <path d="M0,18.5 C0.974431439,20.1666667 2.8362733,21 5.58552559,21 C9.70940401,21 9.75912746,18 13.8652459,18 C17.9713643,18 17.9056522,21 22.013542,21 C26.1214318,21 26.1702765,18 30.2932623,18 C33.0419195,18 35.2774987,19.3333333 37,22" id="Path-3-Copy" stroke="#000000" stroke-width="3"></path>
                </g>
                <g id="g7" transform="translate(424.000000, 0.000000)">
                    <rect id="Rectangle-3" fill="#FFFFFF" x="4" y="0" width="33" height="27"></rect>
                    <path d="M0,11.5 C0.974431439,13.1666667 2.8362733,14 5.58552559,14 C9.70940401,14 9.75912746,11 13.8652459,11 C17.9713643,11 17.9056522,14 22.013542,14 C26.1214318,14 26.1702765,11 30.2932623,11 C33.0419195,11 35.2774987,12.3333333 37,15" id="Path-3-Copy" stroke="#000000" stroke-width="3"></path>
                    <path d="M0,18.5 C0.974431439,20.1666667 2.8362733,21 5.58552559,21 C9.70940401,21 9.75912746,18 13.8652459,18 C17.9713643,18 17.9056522,21 22.013542,21 C26.1214318,21 26.1702765,18 30.2932623,18 C33.0419195,18 35.2774987,19.3333333 37,22" id="Path-3-Copy" stroke="#000000" stroke-width="3"></path>
                </g>
                <g id="g8" transform="translate(291.000000, 1012.000000)">
                    <rect id="Rectangle-3" fill="#FFFFFF" x="4" y="0" width="33" height="27"></rect>
                    <path d="M0,11.5 C0.974431439,13.1666667 2.8362733,14 5.58552559,14 C9.70940401,14 9.75912746,11 13.8652459,11 C17.9713643,11 17.9056522,14 22.013542,14 C26.1214318,14 26.1702765,11 30.2932623,11 C33.0419195,11 35.2774987,12.3333333 37,15" id="Path-3-Copy" stroke="#000000" stroke-width="3"></path>
                    <path d="M0,18.5 C0.974431439,20.1666667 2.8362733,21 5.58552559,21 C9.70940401,21 9.75912746,18 13.8652459,18 C17.9713643,18 17.9056522,21 22.013542,21 C26.1214318,21 26.1702765,18 30.2932623,18 C33.0419195,18 35.2774987,19.3333333 37,22" id="Path-3-Copy" stroke="#000000" stroke-width="3"></path>
                </g>
                <g id="g9" transform="translate(203.000000, 1151.000000)">
                    <rect id="Rectangle-3" fill="#FFFFFF" x="4" y="0" width="33" height="27"></rect>
                    <path d="M0,11.5 C0.974431439,13.1666667 2.8362733,14 5.58552559,14 C9.70940401,14 9.75912746,11 13.8652459,11 C17.9713643,11 17.9056522,14 22.013542,14 C26.1214318,14 26.1702765,11 30.2932623,11 C33.0419195,11 35.2774987,12.3333333 37,15" id="Path-3-Copy" stroke="#000000" stroke-width="3"></path>
                    <path d="M0,18.5 C0.974431439,20.1666667 2.8362733,21 5.58552559,21 C9.70940401,21 9.75912746,18 13.8652459,18 C17.9713643,18 17.9056522,21 22.013542,21 C26.1214318,21 26.1702765,18 30.2932623,18 C33.0419195,18 35.2774987,19.3333333 37,22" id="Path-3-Copy" stroke="#000000" stroke-width="3"></path>
                </g>
                <g id="g10" transform="translate(0.000000, 957.000000)">
                    <rect id="Rectangle-3" fill="#FFFFFF" x="4" y="0" width="33" height="27"></rect>
                    <path d="M0,11.5 C0.974431439,13.1666667 2.8362733,14 5.58552559,14 C9.70940401,14 9.75912746,11 13.8652459,11 C17.9713643,11 17.9056522,14 22.013542,14 C26.1214318,14 26.1702765,11 30.2932623,11 C33.0419195,11 35.2774987,12.3333333 37,15" id="Path-3-Copy" stroke="#000000" stroke-width="3"></path>
                    <path d="M0,18.5 C0.974431439,20.1666667 2.8362733,21 5.58552559,21 C9.70940401,21 9.75912746,18 13.8652459,18 C17.9713643,18 17.9056522,21 22.013542,21 C26.1214318,21 26.1702765,18 30.2932623,18 C33.0419195,18 35.2774987,19.3333333 37,22" id="Path-3-Copy" stroke="#000000" stroke-width="3"></path>
                </g>
                <g id="g11" transform="translate(603.000000, 722.000000)">
                    <rect id="Rectangle-3" fill="#FFFFFF" x="4" y="0" width="33" height="27"></rect>
                    <path d="M0,11.5 C0.974431439,13.1666667 2.8362733,14 5.58552559,14 C9.70940401,14 9.75912746,11 13.8652459,11 C17.9713643,11 17.9056522,14 22.013542,14 C26.1214318,14 26.1702765,11 30.2932623,11 C33.0419195,11 35.2774987,12.3333333 37,15" id="Path-3-Copy" stroke="#000000" stroke-width="3"></path>
                    <path d="M0,18.5 C0.974431439,20.1666667 2.8362733,21 5.58552559,21 C9.70940401,21 9.75912746,18 13.8652459,18 C17.9713643,18 17.9056522,21 22.013542,21 C26.1214318,21 26.1702765,18 30.2932623,18 C33.0419195,18 35.2774987,19.3333333 37,22" id="Path-3-Copy" stroke="#000000" stroke-width="3"></path>
                </g>
                <g id="g12" transform="translate(730.000000, 27.000000)">
                    <rect id="Rectangle-3" fill="#FFFFFF" x="4" y="0" width="33" height="27"></rect>
                    <path d="M0,11.5 C0.974431439,13.1666667 2.8362733,14 5.58552559,14 C9.70940401,14 9.75912746,11 13.8652459,11 C17.9713643,11 17.9056522,14 22.013542,14 C26.1214318,14 26.1702765,11 30.2932623,11 C33.0419195,11 35.2774987,12.3333333 37,15" id="Path-3-Copy" stroke="#000000" stroke-width="3"></path>
                    <path d="M0,18.5 C0.974431439,20.1666667 2.8362733,21 5.58552559,21 C9.70940401,21 9.75912746,18 13.8652459,18 C17.9713643,18 17.9056522,21 22.013542,21 C26.1214318,21 26.1702765,18 30.2932623,18 C33.0419195,18 35.2774987,19.3333333 37,22" id="Path-3-Copy" stroke="#000000" stroke-width="3"></path>
                </g>
            </g>
        </g>
    </g>
</svg>